<?xml version="1.0" encoding="UTF-8" standalone="no"?>
<svg
   xmlns:dc="http://purl.org/dc/elements/1.1/"
   xmlns:cc="http://creativecommons.org/ns#"
   xmlns:rdf="http://www.w3.org/1999/02/22-rdf-syntax-ns#"
   xmlns:svg="http://www.w3.org/2000/svg"
   xmlns="http://www.w3.org/2000/svg"
   xmlns:sodipodi="http://sodipodi.sourceforge.net/DTD/sodipodi-0.dtd"
   xmlns:inkscape="http://www.inkscape.org/namespaces/inkscape"
   id="svg2"
   height="128"
   width="128"
   version="1.1"
   viewBox="0 0 96 96"
   sodipodi:docname="icon.svg"
   inkscape:version="0.92.4 (5da689c313, 2019-01-14)">
  <metadata
     id="metadata829">
    <rdf:RDF>
      <cc:Work
         rdf:about="">
        <dc:format>image/svg+xml</dc:format>
        <dc:type
           rdf:resource="http://purl.org/dc/dcmitype/StillImage" />
        <dc:title />
      </cc:Work>
    </rdf:RDF>
  </metadata>
  <defs
     id="defs827" />
  <sodipodi:namedview
     pagecolor="#ffffff"
     bordercolor="#666666"
     borderopacity="1"
     objecttolerance="10"
     gridtolerance="10"
     guidetolerance="10"
     inkscape:pageopacity="0"
     inkscape:pageshadow="2"
     inkscape:window-width="1920"
     inkscape:window-height="1017"
     id="namedview825"
     showgrid="false"
     units="px"
     inkscape:zoom="3.6648827"
     inkscape:cx="31.396753"
     inkscape:cy="50.692168"
     inkscape:window-x="-8"
     inkscape:window-y="507"
     inkscape:window-maximized="1"
     inkscape:current-layer="svg2" />
  <rect
     style="fill:#000000;fill-opacity:1;stroke:none;stroke-width:2.25070858;stroke-linecap:round;stroke-miterlimit:4;stroke-dasharray:none;stroke-opacity:1"
     id="rect4526"
     height="96"
     x="0"
     y="0"
     width="96"
     rx="10" />
  <path
     id="path186"
     style="fill:#ffffff;fill-opacity:1;stroke:none;stroke-width:0.17544775;stroke-opacity:1"
     d="M 65.538414,-0.16781217 C 63.456365,1.6290123 63.309064,5.2485795 60.502219,6.4649563 61.532577,9.0502118 58.784255,10.80219 57.78231,12.910918 c -0.64131,0.887176 -1.840328,2.916133 -3.131832,1.985642 1.151167,-1.687681 1.225732,-3.893526 1.515302,-5.860147 -1.4283,0.1247619 -0.262832,3.041085 -1.636057,3.664891 -1.3981,0.421047 -1.273765,2.306028 -2.552846,2.889974 -1.412311,-2.76545 0.30193,-6.0297069 -0.659153,-8.9372157 -0.454782,-2.2646791 0.278923,-5.90705323 -2.69492,-6.67291802 -1.40343,1.11763192 -2.279362,2.91785692 -3.89952,3.86568922 -1.595284,0.020601 -3.172598,0.3344218 -4.757222,0.4713058 -0.326881,1.755285 -2.595666,1.1991764 -3.185451,2.7136094 -0.543606,3.6525793 -0.07988,7.4350473 -0.52931,11.0512603 -2.719803,-0.608189 -4.659596,-3.195121 -6.471616,-5.175637 -0.609332,-0.481703 -1.076734,0.831743 -0.376809,1.069097 1.510013,2.484737 4.349023,3.534813 6.617606,5.179182 0.465437,0.379459 0.856258,1.814169 -0.05152,1.779528 -3.231444,-0.370835 -6.093554,-2.368552 -9.344536,-2.585159 0.222059,1.403518 2.865524,0.952911 3.640068,2.094786 -0.200746,0.533686 -1.447831,0.211385 -1.680547,0.909694 -1.46383,3.207291 1.007236,6.41276 -0.964669,9.623545 3.247423,3.016698 0.568528,7.662243 -0.346365,11.049728 -0.891798,0 -0.42459,-1.713794 -1.343035,-1.753609 -4.288447,0.126488 -8.777729,-0.639234 -12.927613,0.05557 1.708988,0.493823 3.723603,0.183501 5.096831,1.562728 -3.986446,0.583945 -8.2339144,0.863173 -12.3145156,0.69855 -0.044415,1.76913 2.901024,0.524869 3.9669175,0.763995 2.0838221,0.453961 4.2297611,-1.140196 6.1981151,-0.242671 -1.167156,1.235445 -3.417902,0.03641 -4.680985,0.908162 -0.211403,1.651317 2.435408,-0.114319 2.545549,1.28053 -1.216893,1.408693 -3.336223,0.883679 -4.6827988,1.989188 0.8065244,1.4659 2.8372168,0.750102 4.0345738,1.583571 0.781653,1.699802 4.766258,1.446781 4.906596,-0.362212 1.712541,-0.888902 3.558165,-1.594159 5.446578,-2.030822 1.847548,0.824795 -2.458684,1.474713 -1.753418,2.323753 1.76761,-0.05721 2.9527,-2.611272 4.752284,-1.859252 0.303781,2.519425 3.449811,-1.010166 4.298972,1.039679 -0.671517,1.079492 -2.449758,1.313444 -3.35044,2.261229 2.972074,-0.757193 6.031364,-2.769043 9.067389,-1.08481 3.549428,1.803769 7.535671,1.540591 11.388874,1.816084 0.582684,0.923543 0.02671,2.302626 0.605819,3.101405 1.248865,-1.145323 0.2807,-2.902191 0.287807,-4.333451 1.611278,0.06238 1.060495,2.848579 1.883018,3.827602 0.527622,1.495366 -1.351739,1.536953 -2.135177,0.840367 -2.440888,1.129752 -6.006398,0.431539 -7.823751,2.401658 1.92927,0.540586 4.048614,0.968531 5.995654,0.247702 0.49564,-1.311672 -1.747998,0.05204 -2.057105,-0.708658 0.584467,-1.001493 1.964762,-0.563103 2.899195,-0.498997 1.065901,1.91641 -0.84747,3.579849 -0.31097,5.487587 1.330602,-1.528279 0.0091,-5.132469 2.410744,-5.591651 1.474492,-0.862887 1.32885,2.068816 2.430285,1.207656 1.923945,-2.562689 6.302982,-1.562825 7.994206,-4.525813 2.039396,-1.476297 4.197916,-2.753282 5.844725,-4.67664 -0.859831,-1.802046 2.124672,-2.794915 2.305872,-4.539803 0.254039,-0.984198 -1.229349,-0.575322 -1.353711,0.08657 -0.985956,1.847084 -2.581179,3.318157 -3.862037,4.888026 0.572037,2.191901 -2.567031,2.110642 -3.54588,3.476074 -1.886636,1.909462 -4.638601,3.047792 -7.2536,3.486181 -1.021462,-1.680734 -1.079999,-4.134234 -1.676894,-6.095729 1.375003,-1.011892 3.272273,-1.185138 4.549563,-2.387667 0.396155,-0.221784 0.271807,-1.05185 -0.266475,-0.934036 -2.648742,1.379227 -5.452021,2.384267 -8.146956,3.680367 -3.83722,-0.27549 -8.23574,-0.09199 -11.2913,-2.805456 -2.076719,-1.699802 -5.373996,-2.195351 -6.287109,-4.997166 -0.01232,-1.677332 0.627131,-3.274797 1.405235,-4.744145 0.646637,-4.122206 -2.723349,-8.582382 0.962834,-12.009729 1.392779,-1.214652 -1.677023,-1.609634 -0.19543,-2.936925 1.870644,-0.701759 5.995656,0.384826 4.878237,3.074001 0.637766,0.343094 0.893648,-0.762416 1.529626,-0.570051 1.321707,2.256005 4.641864,3.328361 6.954852,2.950627 -1.799589,-1.006716 1.309346,-1.58194 1.048202,0.181967 0.78343,1.355033 2.833575,0.213254 3.53883,-0.805583 2.959645,-1.270133 5.256621,-3.659525 8.321072,-4.756315 0.834933,0.01917 1.996707,-0.0436 2.426629,0.831504 0.628874,5.01451 -0.781596,10.200736 0.207913,15.189277 -0.10478,0.793606 2.149532,2.489959 1.762261,0.890674 -1.04457,-1.355031 0.852557,-2.344402 0.598531,-3.787785 0.437014,-1.162667 1.852854,-3.382215 2.909861,-1.386079 3.568977,2.217918 -2.689396,3.574435 -2.144008,5.939586 3.442825,0.869833 5.160477,-3.560637 8.487851,-3.804985 -0.188306,1.862701 -3.570585,1.252693 -3.8264,3.255728 0.746128,0.959954 1.870593,-0.585623 2.611393,-0.878456 1.016158,-1.4659 3.551145,-0.256376 3.892225,-2.136374 0.651996,-0.334421 2.338021,1.38972 1.707369,-0.597744 0.584459,-1.538676 2.012553,1.074223 2.984297,0.55611 1.160037,-0.795332 -2.096234,-2.108633 -0.32684,-2.084341 1.023251,1.21465 2.593745,1.602733 3.908371,2.347805 -0.0782,3.569452 -1.275516,7.081508 -1.966557,10.609374 -2.506641,0.261644 -2.117645,3.851938 -4.491015,4.470522 1.218677,-4.042482 4.080531,-7.521861 4.784023,-11.787851 0.333985,-0.682691 0.29324,-3.129337 -0.456442,-1.819391 -1.025028,5.038803 -3.473054,9.609987 -6.068498,14.033655 -0.319773,0.46958 0.0013,1.043032 -0.158233,1.536857 -4.727236,3.574626 -10.037038,6.49416 -15.419811,8.900943 -3.455275,0.324026 -6.784411,1.103932 -10.16686,1.805642 -0.877584,2.53677 -4.014847,0.278846 -5.759353,0.03451 -2.217061,-3.640511 -6.430888,-3.993955 -9.704955,-6.347029 -3.066216,-0.538862 -6.180566,0.388129 -9.220139,-0.440116 -1.101424,-0.978975 -0.141912,-3.150084 -1.918402,-3.617938 -2.058951,-0.810904 -4.926255,0.157867 -6.489567,-1.392931 1.463827,-1.1367 4.091097,-1.237315 4.943812,-3.132883 -1.941703,0.734673 -3.915163,1.81412 -5.812456,2.486413 -2.092708,-1.275318 -4.642109,-1.185243 -6.8929231,-2.049854 -0.4565566,-0.175021 -1.1208291,-0.06249 -1.3269021,0.407102 0.7923142,0.713883 2.4479413,0.317176 2.7339557,1.521382 0.1279146,0.753744 1.1972755,0.467809 1.6982485,0.608142 2.545712,-0.190593 3.904806,2.902523 6.521578,2.29606 2.016316,0.169798 5.585289,-1.266636 4.848048,2.119125 -2.577689,2.396387 2.573994,2.210874 3.899254,2.884941 3.052015,-0.585669 5.272661,1.906014 6.960316,3.980103 0.08172,1.167891 -1.362494,1.315268 -2.149481,1.822936 -1.23111,0.103969 -3.140996,2.938601 -1.030497,2.673462 2.591898,-4.075399 7.182439,-1.113992 9.822312,1.114276 1.337697,1.564693 1.117457,4.184396 3.33273,5.061176 0.863375,1.257964 1.042886,3.31145 0.659161,4.637015 -3.250977,-0.648051 -4.885446,-3.843218 -7.475566,-5.607126 -1.522458,-0.61686 -1.410446,-2.926625 -3.101658,-3.20039 1.645021,4.229576 6.121802,6.636265 9.347902,9.37225 -1.117401,1.730992 1.485154,1.221598 2.49065,0.911467 1.476264,-2.644186 4.769791,-4.021689 7.375906,-4.969521 0.959035,5.10123 -0.447571,10.489066 0.393976,15.694121 0.652502,-0.09966 1.309932,-0.161222 1.96889,-0.206354 0.08611,-0.03689 0.1441,-0.06147 0.220155,-0.09415 0,0 -0.0011,0 -0.0013,-0.0048 -1.776487,-2.136469 -1.064243,-5.026776 -1.112199,-7.551375 0.653734,-3.177823 -0.641206,-6.444093 -0.0568,-9.599399 0.98239,-1.335963 1.447818,-4.158619 3.668426,-3.430891 1.120965,1.010212 3.476503,-0.978785 3.327271,1.507678 1.632609,2.79664 3.410976,5.546423 4.370283,8.653194 0.541821,-3.079078 -1.529554,-5.846206 -3.053778,-8.386423 -0.339316,-0.571825 -1.026856,-1.924988 0.09052,-2.11558 4.425242,-1.713697 9.102656,0.181921 13.638046,-0.69141 2.201067,-0.564876 3.249229,2.462217 5.475194,1.679009 1.026818,-0.27204 4.194246,0.206165 2.980912,-1.630523 1.238219,-0.252973 2.553039,-0.408876 3.780585,-0.02778 0.581608,-0.280234 1.184819,-0.532345 1.803656,-0.761744 -0.06886,-0.20626 -0.136111,-0.413046 -0.199341,-0.621316 -0.04682,-0.15437 -0.04202,-0.372321 0.0013,-0.634827 -2.541277,0.572446 -5.085848,1.130375 -7.667364,1.376736 -0.808298,0.232179 -0.833182,2.053341 -1.92751,0.84214 -2.563478,-2.247335 -6.050745,-0.904713 -9.092101,-0.889094 -0.342869,-0.04504 -1.060494,-0.131613 -0.898838,-0.606415 2.849497,-1.322069 6.562313,-1.625253 9.006759,-3.148358 -8.131003,1.99786 -16.210433,4.697383 -24.687845,4.515465 -0.612885,-1.017162 1.899176,-0.68432 2.494281,-1.074176 5.02748,-2.385993 10.440417,-4.233266 15.156993,-7.234347 0.717704,-2.309764 4.036091,-1.987367 5.274296,-3.695842 -0.69283,-0.22528 -2.602549,1.750205 -3.146147,0.935806 3.838991,-3.805082 8.882539,-6.626157 12.087341,-11.093183 4.228027,-4.342216 7.866109,-9.677303 8.73481,-15.494091 -1.915061,-1.190408 -1.204438,4.57981 -3.627578,3.696131 -3.137291,-0.642877 -5.837372,-2.370613 -8.47902,-4.046171 -1.392757,-1.796826 -2.881656,-3.562507 -4.68124,-4.988542 -1.067666,-0.646327 -0.71598,1.306497 -1.948842,1.190407 -2.357406,2.782793 -5.02014,5.397514 -8.333288,7.099091 -0.971743,-0.275539 -1.350248,-1.346312 -2.023537,-1.987415 -2.12291,-1.488419 1.06956,-3.163931 1.13174,-4.855062 -1.323495,-0.722552 -0.687709,-2.918 0.0638,-3.881403 2.026974,0.544082 4.226278,0.258099 6.180424,1.025689 0.611109,-0.254698 0.413958,-1.171292 -0.04967,-1.507439 -2.83706,-1.131478 -6.237235,-0.244301 -8.894859,-1.909463 -0.660866,0.02587 -1.149338,0.77444 -0.920171,1.405148 -0.383717,2.233488 -0.838421,4.480918 -0.754909,6.761216 0.08352,0.467856 -0.692831,0.966902 -0.840287,0.34137 -0.300232,-2.824334 0.696385,-6.13904 -1.3839,-8.53538 -1.279068,-1.148821 0.465337,-2.034225 0.72293,-3.127566 -0.332211,-0.467855 -2.629083,1.788056 -1.788819,0.336052 2.877921,-2.777572 5.260083,-5.97619 7.92838,-8.9357286 C 67.942381,9.109304 67.835811,7.9258425 67.061244,8.4387347 62.330468,13.231462 58.509202,19.22859 52.824435,22.986863 c -1.524237,-1.134928 1.842143,-3.0809 1.380242,-4.732169 -0.705254,-1.918184 1.61312,-0.959906 2.14428,-2.056695 1.053468,-1.65999 3.12142,-1.94947 4.698942,-2.874786 0.465454,-1.555972 -2.760796,1.240763 -2.45525,-0.434796 0.945095,-1.372329 2.025354,-2.730761 3.265349,-3.8276004 1.438948,0.1091888 2.064191,-1.1782854 2.156497,-2.3617466 0.126177,-1.1366996 2.439102,-2.4067849 0.593329,-2.949143 0.47077,-1.1002868 2.957804,-3.31303059 0.93083,-3.91944589 z M 46.697117,3.8069719 c 0.858046,0.3846333 0.543589,2.4069766 -0.595141,2.5871708 -0.65908,-0.7104303 -0.27356,-2.2059874 0.595141,-2.5871708 z m -2.917939,1.3911574 c 0.616303,-0.022035 1.446302,0.3073514 1.009947,1.1162891 -0.413925,0.7901558 -1.797867,-0.7140732 -1.129912,-1.1073773 0.03875,-0.00482 0.07887,-0.00767 0.119965,-0.00915 z m 5.843691,7.9519137 c 0.783424,0.793607 1.108553,3.243703 0.206097,4.168969 -0.229167,-1.375776 -0.202558,-2.779344 -0.206097,-4.168969 z m 14.878262,1.251067 c -0.758552,0.992869 -2.469319,1.814071 -2.316546,3.134415 1.261316,0.207935 4.613549,-2.978465 2.316546,-3.134415 z m -16.246017,3.079076 c 0.676841,0.06933 0.536401,1.252742 0.499092,1.86783 -1.05523,0.285934 -0.849067,-1.393026 -0.499092,-1.86783 z m 4.155045,0.531771 c 1.565098,0.280666 -0.541758,2.907509 -1.094252,3.687218 0.0817,-1.254513 0.13139,-2.829508 1.094252,-3.687218 z m -9.322931,2.042993 c 0.833182,0.13166 0.898852,1.29083 0.172277,1.60791 -0.605793,-0.299734 -0.708771,-1.188589 -0.172277,-1.60791 z m 5.593347,1.286566 c 1.471718,0 -0.04383,3.431803 -1.487719,2.31053 0.0533,-0.890626 0.891627,-1.545575 1.33575,-2.299318 0.05381,-0.0076 0.10452,-0.011 0.151969,-0.011 z m 16.362365,1.894802 c 1.680563,0.266821 0.106465,2.915989 0.200624,4.241555 -0.394377,0.798781 -0.08506,2.786244 -1.346423,2.80014 -0.12086,-2.217918 0.0013,-5.18594 1.145799,-7.041695 z m 10.78567,6.713739 c 1.375756,-0.07115 0.24194,2.209869 -0.8853,1.677764 -0.708821,-0.54758 0.237947,-1.344445 0.744249,-1.663295 0.04967,-0.0071 0.09661,-0.012 0.141051,-0.01437 z m 3.468853,0.328194 c 0.769354,0.01534 1.511359,0.826425 0.779896,1.453632 -0.884703,1.251018 -2.746505,-1.117725 -1.200962,-1.374195 0.13519,-0.05792 0.278575,-0.08226 0.421066,-0.07944 z m -1.977489,1.515296 c 0.817166,0.0048 1.060028,1.375634 0.09635,1.527226 -1.074773,0.549304 -1.567084,-1.134878 -0.479849,-1.438111 0.138341,-0.06262 0.266826,-0.08983 0.383563,-0.08912 z m 4.084291,0.160168 c 3.375316,0.110869 3.704167,5.23979 7.120356,5.778698 -0.111911,-1.238942 -1.652203,-1.781349 -1.858301,-2.952689 1.270211,0.142108 2.492519,0.680967 3.560199,1.349811 0.262922,1.159218 -2.316624,3.382214 -0.145733,3.733932 -1.884846,3.945463 -5.233461,7.293085 -8.482651,10.186746 -0.255817,-5.064769 2.607645,-9.859223 2.112003,-14.982922 -1.419419,0.0053 -2.925747,-0.45564 -3.991637,-1.367058 -0.703491,-1.09334 0.90234,-1.491821 1.685764,-1.746518 z M 73.1454,32.392058 c 1.737415,-0.04695 -0.691016,2.016785 -1.24884,1.195486 -0.124361,-0.675791 0.806494,-0.885356 1.24884,-1.195486 z m -14.537649,1.339651 c -0.126826,0 -0.285215,0.02156 -0.479084,0.07258 -0.463664,0.227003 -1.026558,0.694619 -0.820499,1.26122 0.814651,0.836967 2.525106,-1.325853 1.299583,-1.333806 z m 19.680542,5.553323 c -0.05239,1.44e-4 -0.110226,0.0057 -0.174105,0.01724 -1.293281,3.739251 -3.588312,7.140581 -6.469787,9.885238 -2.643426,0.771087 -4.880153,2.57486 -6.574916,4.667966 0.683947,-0.244299 1.332339,-0.573451 2.018063,-0.817798 0.520503,0.45051 -1.863552,2.417036 -0.328668,2.323465 4.190744,-4.539755 9.532707,-8.500788 11.726654,-14.445835 0.128252,-0.448357 0.587521,-1.633782 -0.197241,-1.630286 z M 9.9976713,39.91574 c -0.8692807,0.01582 -1.8496504,0.184986 -2.5291548,0.14699 -1.5082402,0.946062 3.8106005,1.015485 4.1623455,0.263467 -0.348191,-0.342662 -0.957084,-0.422866 -1.6331907,-0.410457 z m 50.0746507,2.22472 c -1.154731,0.836918 -3.503372,2.375403 -2.659531,3.711367 1.115635,-1.037907 5.052458,-2.399646 2.659531,-3.711367 z m -32.837924,1.402897 c 0.08335,4.7e-5 0.17,0.0081 0.260486,0.02491 0.563152,-0.06588 1.552704,0.493679 1.25248,1.003074 -3.354014,0.296285 -6.221243,2.477838 -9.612563,2.779297 0.241601,-2.074088 3.101885,-3.063315 4.976079,-2.583339 1.372338,0.531194 1.873258,-1.225048 3.123518,-1.223898 z m -9.257872,1.913535 c 2.225939,0.450513 -2.245391,2.824335 -3.009281,1.108912 0.969967,-0.443565 2.074845,-0.566602 3.009281,-1.108912 z m 61.544722,4.987536 c 0.48143,0.01677 0.589984,1.100576 0.351829,1.506673 -4.354178,3.734029 -8.657003,7.930833 -14.201432,9.930419 -0.236261,0.907922 0.829732,0.490327 1.357354,0.438342 -0.186529,0.589122 -0.733641,0.998094 -1.33055,1.141924 -1.977229,0.327476 -3.426863,2.094785 -5.514227,2.006437 0.415697,-1.469349 2.529749,-1.788248 3.844349,-2.431077 4.533599,-4.811797 10.985751,-7.521718 15.39145,-12.581314 0.03541,-0.0087 0.06912,-0.01245 0.101278,-0.0115 z m 6.551249,1.709961 c -0.04395,0.0048 -0.09194,0.01534 -0.143396,0.04121 -2.343182,1.717099 -5.416489,2.716724 -7.470112,4.641806 2.554595,-1.022335 5.080856,-2.370133 7.41339,-3.868946 0.681018,0.113071 0.625126,-0.838403 0.200118,-0.814016 z m -21.01707,1.701097 c -2.135346,1.067373 -4.709652,2.40506 -6.136176,3.978376 2.467541,-0.356939 4.686569,-2.165932 6.136176,-3.978376 z m 23.196974,6.745266 c -0.07042,-5e-5 -0.174585,0.02204 -0.322924,0.07129 -2.238375,1.750062 -5.230128,1.691082 -7.784724,2.675234 -0.477877,0.07105 -0.454625,0.999912 0.07832,0.883824 3.18347,-0.107419 6.478839,-0.77813 9.601903,0.164479 0.234226,0.0087 0.603237,0.02635 0.955302,-0.0095 0.199288,-0.459136 0.407577,-0.913434 0.602159,-1.32873 -0.874692,-0.711536 -2.557395,0.306059 -3.138601,-0.978211 -0.663744,-0.398767 0.502062,-1.478164 0.0091,-1.478259 z m -55.031719,0.09539 c 1.255983,0.03116 2.348407,1.628941 2.721468,2.853991 -1.113857,-0.251295 -3.279289,-1.826435 -2.721468,-2.853991 z m 22.216709,3.988774 c 0.476101,0.04853 -1.266709,2.278622 -1.939985,2.250882 0,-0.966854 0.946937,-1.964946 1.939985,-2.250882 z m -3.387647,0.485344 c 2.458672,0.374236 -2.513799,5.681582 -2.924165,2.528 -1.45495,0.866384 -1.06956,3.534764 -2.279357,4.297181 -0.16343,-1.540402 -0.333772,-3.668294 0.335961,-5.291871 1.520684,-0.701759 3.355772,-0.69644 4.867561,-1.53331 z M 12.59917,67.673923 c -1.399872,0.252971 -2.9864431,-0.140238 -4.2086665,0.734769 5.1305045,1.31862 10.7105875,-0.28076 15.8091145,1.396524 2.705597,2.238712 2.826495,5.868964 3.386089,9.013873 0.323322,0.762415 -0.659287,3.358019 0.852507,2.867644 0.20252,-1.952775 -0.03374,-3.919398 -0.358854,-5.846205 2.833504,0.816125 0.659246,3.742604 2.076878,5.383524 0.808576,4.630741 1.54716,9.270056 1.323002,13.969406 0.285806,0.0076 0.571466,0.01773 0.856924,0.03593 -0.215123,0.01773 -0.430847,0.02876 -0.645356,0.05255 -0.03511,0.0048 0.07048,0.01051 0.105648,0.0071 0.197458,-0.0182 0.394582,-0.04072 0.591756,-0.06191 -0.01337,-0.169319 -0.03944,-0.319186 -0.08249,-0.423633 1.023261,-4.321471 -0.403157,-8.544293 -1.092434,-12.772192 0.239824,-3.898636 -0.698377,-7.798963 -1.822895,-11.493129 1.435402,-1.266636 -1.001779,-1.524879 -1.78699,-2.2803 C 22.725158,68.143548 17.587557,67.646137 12.59917,67.673829 Z m -7.4643796,0.405569 c -0.5732139,0.0066 -1.1794956,0.06866 -1.7609647,0.103586 0.083668,0.172625 0.1674819,0.345252 0.2513811,0.51778 1.1819802,-0.0087 2.3653947,-0.02252 3.5378021,-0.10507 C 6.6585958,68.167456 5.929396,68.069813 5.1347904,68.07949 Z m 47.7557606,1.382582 c 0.685478,0.02491 1.470084,0.424927 1.731554,1.053574 -1.229337,3.55733 -4.808934,5.777069 -8.372581,6.702336 -0.698165,-0.252974 -0.305713,-2.12957 0.731762,-2.062014 2.149545,-1.592386 4.265439,-3.460167 5.773686,-5.693656 0.04462,0 0.08986,0 0.135579,-1.43e-4 z m 17.373335,2.280299 c -0.534715,0.164624 -0.822419,0.669035 -0.447584,1.226965 1.004656,4.511199 0.51975,9.340964 -1.400809,13.563067 0.399214,-0.176171 0.798661,-0.351862 1.197836,-0.527938 1.85091,-4.145683 2.645047,-8.797934 1.499949,-13.234393 -0.172317,-0.369063 -0.431918,-1.022527 -0.849392,-1.027701 z m -15.053924,1.779526 c -0.435239,5.139319 1.774815,10.013641 2.034209,15.111374 -0.385247,0.464837 -0.632024,0.979789 -0.773919,1.522386 0.440309,-0.110623 0.984764,-0.178374 2.194752,-0.361443 -0.55029,-3.563177 -0.967672,-7.14753 -1.914764,-10.639079 -0.754999,-1.460676 0.527557,-5.425303 -1.540278,-5.633238 z m -44.215097,1.857719 c -0.952197,0.365564 0.824491,0.791833 1.094519,0.559655 1.911506,-0.181969 3.762614,0.41932 5.647469,0.360389 0.527617,0.12826 1.763871,0.864516 1.499174,-0.185513 -2.600781,-1.003266 -5.510698,-0.609818 -8.241162,-0.734531 z m 68.893048,3.30776 c -0.02334,0 -0.0485,0 -0.07521,0.0048 -1.540745,1.599139 -3.097221,3.186398 -4.683601,4.74515 0.30499,-0.137697 0.501311,-0.194377 1.884575,-0.749526 1.053532,-1.017593 2.062544,-2.078161 2.990793,-3.2174 0.209858,-0.206306 0.234018,-0.761456 -0.11658,-0.781484 z M 65.66957,84.369103 c -0.556086,-0.02252 -1.066019,0.402361 -1.20746,0.928477 -0.350494,1.095734 -0.66115,2.204167 -0.968579,3.313604 0.354449,-0.07369 0.709599,-0.142584 1.065644,-0.206355 0.564994,-0.31885 1.141311,-0.6148 1.724538,-0.896999 -0.09803,-0.229064 -0.264803,-0.409593 -0.539203,-0.508675 -1.151166,-0.48865 0.387311,-1.706558 0.165249,-2.591962 -0.0804,-0.02252 -0.160761,-0.03499 -0.240189,-0.03834 z M 28.920935,85.58337 v 0 c -0.321116,-0.01773 -0.411616,0.419801 -0.480901,0.752068 -0.277059,2.083717 -0.178694,4.185163 -0.08978,6.283302 0.414695,0.720683 0.857817,1.554057 1.381037,2.553631 0.01114,9.8e-5 0.02239,1.46e-4 0.03358,0 -0.07241,-3.163496 -0.541076,-6.327809 -0.582126,-9.497633 -0.101252,-0.05946 -0.18769,-0.08777 -0.261794,-0.0919 z M 0.3572637,86.784704 c 0.0407319,0.09281 0.0815805,0.185609 0.12231246,0.278414 0.0787277,0.149147 0.15548932,0.293648 0.22952128,0.427943 C 0.83615612,87.721612 0.4745213,87.02014 0.35727018,86.784704 Z m 65.1967633,1.149779 c -0.103224,0.0061 -0.505914,0.220105 -0.928508,0.459183 0.232097,-0.04121 0.464337,-0.08082 0.697161,-0.118535 0.07548,-0.09133 0.151218,-0.182928 0.226653,-0.274152 0.04007,-0.04843 0.03851,-0.06857 0.0052,-0.0665 z m -8.693962,2.663064 c -0.150181,0.0048 -0.320215,0.0095 -0.484803,0.01916 -0.0026,0.01437 -0.0052,0.02875 -0.0064,0.04311 0.282971,-0.01437 0.56611,-0.02826 0.848614,-0.04456 0.234666,-0.01341 -0.0039,-0.02394 -0.357302,-0.01773 z m -2.742019,0.492194 c -0.448259,0.109052 -0.791309,0.196582 -1.082035,0.280186 0.0091,0.05183 0.02114,0.103536 0.03125,0.155328 0.377117,-0.155232 0.76313,-0.313963 1.050807,-0.435514 z m 4.234692,2.536145 c -0.06445,-0.02635 -0.506017,0.6412 -0.993037,1.461205 0.116322,0.08246 0.219663,0.173007 0.310204,0.272089 0.216848,-0.481079 0.431647,-0.99014 0.63729,-1.526172 0.05174,-0.134727 0.06406,-0.1996 0.04552,-0.207122 z"
     inkscape:connector-curvature="0" />
</svg>
